<svg xmlns="http://www.w3.org/2000/svg" xmlns:xlink="http://www.w3.org/1999/xlink" width="331" height="82" viewBox="0 0 331 82">
    <defs>
        <path id="a" d="M0 .184h26.555v26.555H0z"/>
        <path id="c" d="M0 81.5h332v-80H0z"/>
    </defs>
    <g fill="none" fill-rule="evenodd">
        <path fill="#611759" d="M57 14c0 7.456-6.044 13.5-13.5 13.5S30 21.456 30 14 36.044.5 43.5.5 57 6.544 57 14M42 42c0 7.456-6.044 13.5-13.5 13.5S15 49.456 15 42s6.044-13.5 13.5-13.5S42 34.544 42 42M74 42c0 7.456-6.044 13.5-13.5 13.5S47 49.456 47 42s6.044-13.5 13.5-13.5S74 34.544 74 42M88 68c0 7.456-6.044 13.5-13.5 13.5S61 75.456 61 68s6.044-13.5 13.5-13.5S88 60.544 88 68"/>
        <g transform="translate(0 54.5)">
            <mask id="b" fill="#fff">
                <use xlink:href="#a"/>
            </mask>
            <path fill="#611759" d="M26.555 13.461c0 7.333-5.945 13.278-13.278 13.278C5.945 26.739 0 20.794 0 13.46S5.945.184 13.277.184c7.333 0 13.278 5.944 13.278 13.277" mask="url(#b)"/>
        </g>
        <mask id="d" fill="#fff">
            <use xlink:href="#c"/>
        </mask>
        <path fill="#611759" d="M111.474 69.584l-1.493-3.832-1.499 3.832h2.992zm1.315 3.4l-.954-2.463h-3.714l-.966 2.462H106l3.478-8.888h1.232l3.424 8.888h-1.345zm4.35.15c-.534 0-1.182-.126-1.944-.379v-1.087c.762.385 1.426.577 1.99.577.336 0 .615-.092.836-.277a.863.863 0 0 0 .332-.69c0-.405-.31-.739-.93-1.003l-.682-.295c-1.007-.424-1.51-1.035-1.51-1.831 0-.569.198-1.016.595-1.343.397-.326.941-.49 1.632-.49.36 0 .804.05 1.333.151l.243.048v.985c-.652-.196-1.169-.294-1.552-.294-.75 0-1.126.276-1.126.829 0 .356.285.656.853.9l.563.24c.636.273 1.086.56 1.35.863.266.302.398.68.398 1.132a1.75 1.75 0 0 1-.67 1.411c-.446.368-1.017.553-1.712.553zm6.404 0c-.592 0-1.054-.173-1.386-.517-.332-.344-.498-.823-.498-1.435V67.35h-.805v-.889h.805v-1.183l1.167-.114v1.297h1.683v.889h-1.683v3.615c0 .853.364 1.28 1.09 1.28.154 0 .342-.026.563-.078v.816c-.36.1-.671.15-.936.15zm5.92-.98c-.7.653-1.373.98-2.02.98-.534 0-.976-.17-1.328-.508-.351-.338-.527-.766-.527-1.282 0-.713.295-1.26.885-1.643.59-.382 1.437-.573 2.539-.573h.278v-.787c0-.757-.383-1.135-1.149-1.135-.616 0-1.281.192-1.996.576v-.979c.786-.324 1.522-.486 2.21-.486.718 0 1.248.164 1.59.492.342.329.512.84.512 1.532v2.955c0 .676.206 1.015.617 1.015.051 0 .126-.008.225-.024l.083.654a1.985 1.985 0 0 1-.877.193c-.545 0-.893-.327-1.043-.98zm-.173-.642v-1.688l-.39-.012c-.64 0-1.158.123-1.553.37-.395.246-.592.57-.592.97 0 .284.099.524.296.72a.987.987 0 0 0 .723.295c.486 0 .991-.219 1.516-.655zm3.55 1.471v-6.522h1.167v1.225c.616-.913 1.37-1.37 2.263-1.37.557 0 1.001.18 1.333.538.332.359.498.84.498 1.445v4.684h-1.168v-4.3c0-.484-.07-.83-.21-1.036-.14-.206-.372-.31-.696-.31-.715 0-1.388.475-2.02 1.424v4.222h-1.167zm7.548 2.169l.136-1.027c.676.324 1.341.486 1.997.486 1.315 0 1.973-.707 1.973-2.12v-1.027c-.431.913-1.138 1.37-2.121 1.37-.77 0-1.383-.285-1.837-.854-.454-.568-.681-1.335-.681-2.3 0-.993.259-1.802.776-2.426.517-.625 1.187-.937 2.008-.937.72 0 1.337.296 1.855.889v-.745h1.173v4.745c0 1.02-.053 1.776-.157 2.267-.105.49-.302.892-.59 1.204-.51.549-1.301.823-2.376.823a6.69 6.69 0 0 1-2.156-.348zm4.106-4.427v-2.708c-.514-.541-1.073-.811-1.677-.811-.537 0-.958.218-1.262.654-.304.437-.456 1.035-.456 1.796 0 1.43.496 2.144 1.487 2.144.675 0 1.311-.358 1.908-1.075zm7.447 2.258v-1.225c-.62.917-1.373 1.376-2.257 1.376-.561 0-1.007-.18-1.34-.538-.33-.358-.497-.842-.497-1.45V66.46h1.167v4.3c0 .489.07.836.21 1.042.14.207.375.31.703.31.71 0 1.382-.475 2.014-1.424v-4.228h1.167v6.522h-1.167zm7.3 0v-8.888h1.167v4.372l3.549-4.372h1.25l-3.436 4.24 4.046 4.648h-1.576l-3.833-4.504v4.504h-1.167zm11.974 0v-1.225c-.62.917-1.373 1.376-2.257 1.376-.561 0-1.008-.18-1.34-.538-.331-.358-.497-.842-.497-1.45V66.46h1.167v4.3c0 .489.07.836.21 1.042.14.207.375.31.702.31.711 0 1.383-.475 2.015-1.424v-4.228h1.167v6.522h-1.167zm5.433.15c-.592 0-1.055-.172-1.386-.516-.332-.344-.498-.823-.498-1.435V67.35h-.806v-.889h.806v-1.183l1.167-.114v1.297h1.683v.889h-1.683v3.615c0 .853.364 1.28 1.09 1.28.154 0 .342-.026.563-.078v.816c-.36.1-.671.15-.936.15zm4.308 0c-.534 0-1.181-.125-1.943-.378v-1.087c.762.385 1.425.577 1.99.577.336 0 .614-.092.835-.277a.863.863 0 0 0 .332-.69c0-.405-.31-.739-.93-1.003l-.681-.295c-1.007-.424-1.51-1.035-1.51-1.831 0-.569.198-1.016.594-1.343.397-.326.941-.49 1.633-.49.359 0 .803.05 1.333.151l.242.048v.985c-.651-.196-1.169-.294-1.552-.294-.75 0-1.125.276-1.125.829 0 .356.284.656.853.9l.563.24c.635.273 1.086.56 1.35.863.265.302.397.68.397 1.132a1.75 1.75 0 0 1-.67 1.411c-.446.368-1.016.553-1.711.553zm9.189-.36c-.782.24-1.452.36-2.008.36-.948 0-1.721-.319-2.32-.957-.598-.639-.897-1.467-.897-2.484 0-.989.263-1.8.79-2.432.528-.633 1.202-.95 2.024-.95.778 0 1.38.281 1.804.842.424.56.637 1.357.637 2.39l-.006.366h-4.058c.17 1.55.918 2.325 2.245 2.325.486 0 1.082-.132 1.789-.397v.937zm-3.981-3.753h2.838c0-1.214-.447-1.82-1.34-1.82-.896 0-1.395.606-1.498 1.82zm6.02 3.963v-6.522h1.167v1.225c.462-.913 1.133-1.37 2.014-1.37.118 0 .243.01.373.03v1.106a1.695 1.695 0 0 0-.533-.102c-.739 0-1.357.444-1.854 1.333v4.3h-1.167zm9.675-.21c-.782.24-1.452.36-2.009.36-.948 0-1.72-.319-2.319-.957-.598-.639-.898-1.467-.898-2.484 0-.989.264-1.8.791-2.432.528-.633 1.202-.95 2.023-.95.779 0 1.38.281 1.804.842.425.56.637 1.357.637 2.39l-.006.366h-4.058c.17 1.55.919 2.325 2.246 2.325.485 0 1.082-.132 1.789-.397v.937zm-3.981-3.753h2.837c0-1.214-.446-1.82-1.339-1.82-.896 0-1.396.606-1.498 1.82zm6.02 3.963V63.5h1.166v4.186c.617-.913 1.37-1.37 2.263-1.37.557 0 1.002.18 1.333.538.332.359.498.84.498 1.445v4.684h-1.167v-4.3c0-.484-.07-.83-.21-1.036-.14-.206-.373-.31-.696-.31-.715 0-1.389.475-2.02 1.424v4.222h-1.168zm10.841-.828c-.699.652-1.372.979-2.02.979-.533 0-.975-.17-1.327-.508-.351-.338-.527-.766-.527-1.282 0-.713.295-1.26.886-1.643.59-.382 1.436-.573 2.538-.573h.279v-.787c0-.757-.383-1.135-1.15-1.135-.616 0-1.281.192-1.996.576v-.979c.786-.324 1.522-.486 2.21-.486.718 0 1.249.164 1.59.492.342.329.513.84.513 1.532v2.955c0 .676.205 1.015.616 1.015.051 0 .126-.008.225-.024l.083.654a1.985 1.985 0 0 1-.877.193c-.545 0-.892-.327-1.043-.98zm-.171-.643v-1.688l-.391-.012c-.64 0-1.158.123-1.552.37-.395.246-.593.57-.593.97 0 .284.099.524.296.72a.987.987 0 0 0 .723.295c.486 0 .991-.219 1.517-.655zm3.549 1.544V63.5h1.167v4.186c.478-.913 1.195-1.37 2.15-1.37.775 0 1.384.287 1.828.86.445.572.667 1.355.667 2.348 0 1.081-.252 1.953-.756 2.616-.503.662-1.166.994-1.987.994-.762 0-1.396-.297-1.902-.89l-.142.812h-1.025zm1.167-1.628c.6.544 1.173.817 1.718.817 1.122 0 1.683-.867 1.683-2.6 0-1.53-.498-2.295-1.493-2.295-.652 0-1.288.358-1.908 1.075v3.003zm6.464 1.555v-6.522h1.167v6.522h-1.167zm0-7.705v-1.183h1.167v1.183h-1.167zm3.502 7.705V63.5h1.167v9.483h-1.167zm3.502 0v-6.522h1.167v6.522h-1.167zm0-7.705v-1.183h1.167v1.183h-1.167zm5.433 7.856c-.592 0-1.054-.173-1.386-.517-.332-.344-.497-.823-.497-1.435V67.35h-.806v-.889h.806v-1.183l1.167-.114v1.297h1.682v.889h-1.682v3.615c0 .853.363 1.28 1.09 1.28.154 0 .341-.026.562-.078v.816c-.359.1-.67.15-.936.15zm5.92-.98c-.7.653-1.373.98-2.02.98-.534 0-.976-.17-1.328-.508-.351-.338-.527-.766-.527-1.282 0-.713.295-1.26.886-1.643.59-.382 1.436-.573 2.538-.573h.279v-.787c0-.757-.383-1.135-1.15-1.135-.616 0-1.281.192-1.996.576v-.979c.786-.324 1.523-.486 2.21-.486.719 0 1.249.164 1.59.492.342.329.513.84.513 1.532v2.955c0 .676.205 1.015.616 1.015.051 0 .126-.008.225-.024l.083.654a1.985 1.985 0 0 1-.877.193c-.545 0-.892-.327-1.042-.98zm-.172-.642v-1.688l-.391-.012c-.64 0-1.157.123-1.552.37-.395.246-.593.57-.593.97 0 .284.099.524.296.72a.987.987 0 0 0 .723.295c.486 0 .991-.219 1.517-.655zm5.48 1.622c-.592 0-1.054-.173-1.386-.517-.332-.344-.497-.823-.497-1.435V67.35h-.806v-.889h.806v-1.183l1.167-.114v1.297h1.682v.889h-1.682v3.615c0 .853.363 1.28 1.09 1.28.154 0 .341-.026.562-.078v.816c-.359.1-.671.15-.936.15zm4.308 0c-.533 0-1.18-.126-1.943-.379v-1.087c.762.385 1.426.577 1.99.577.336 0 .615-.092.836-.277a.863.863 0 0 0 .332-.69c0-.405-.31-.739-.93-1.003l-.682-.295c-1.007-.424-1.51-1.035-1.51-1.831 0-.569.198-1.016.595-1.343.397-.326.94-.49 1.632-.49.36 0 .804.05 1.333.151l.243.048v.985c-.652-.196-1.17-.294-1.552-.294-.75 0-1.126.276-1.126.829 0 .356.284.656.853.9l.563.24c.636.273 1.086.56 1.35.863.265.302.398.68.398 1.132a1.75 1.75 0 0 1-.67 1.411c-.446.368-1.017.553-1.712.553zm4.474-.15V66.46h1.167v6.522h-1.167zm0-7.706v-1.183h1.167v1.183h-1.167zm6.02 7.856c-.92 0-1.655-.31-2.204-.928-.55-.619-.824-1.447-.824-2.484 0-1.049.276-1.879.827-2.49.55-.61 1.298-.915 2.242-.915s1.691.305 2.242.916c.551.61.827 1.436.827 2.477 0 1.065-.277 1.902-.83 2.51-.553.61-1.313.914-2.28.914zm.017-.89c1.236 0 1.855-.844 1.855-2.534 0-1.67-.61-2.504-1.831-2.504-1.217 0-1.825.839-1.825 2.516 0 1.682.6 2.523 1.801 2.523zm7.43.89c-.92 0-1.655-.31-2.204-.928-.549-.619-.823-1.447-.823-2.484 0-1.049.275-1.879.826-2.49.551-.61 1.299-.915 2.242-.915.944 0 1.692.305 2.243.916.55.61.826 1.436.826 2.477 0 1.065-.276 1.902-.83 2.51-.552.61-1.312.914-2.28.914zm.018-.89c1.236 0 1.854-.844 1.854-2.534 0-1.67-.61-2.504-1.83-2.504-1.217 0-1.825.839-1.825 2.516 0 1.682.6 2.523 1.8 2.523zm4.912.74V66.46h1.167v1.225c.616-.913 1.37-1.37 2.263-1.37.557 0 1.001.18 1.333.538.332.359.497.84.497 1.445v4.684h-1.167v-4.3c0-.484-.07-.83-.21-1.036-.14-.206-.372-.31-.696-.31-.715 0-1.388.475-2.02 1.424v4.222h-1.167zm7.524 0V66.46h1.167v6.522h-1.167zm0-7.706v-1.183h1.167v1.183h-1.167zm7.3 7.705v-8.888h1.167v4.372l3.55-4.372h1.25l-3.437 4.24 4.046 4.648h-1.576l-3.833-4.504v4.504h-1.167zm12.667-.21c-.782.24-1.451.36-2.008.36-.948 0-1.721-.319-2.32-.957-.598-.639-.897-1.467-.897-2.484 0-.989.264-1.8.79-2.432.528-.633 1.203-.95 2.024-.95.778 0 1.38.281 1.804.842.425.56.637 1.357.637 2.39l-.006.366h-4.058c.17 1.55.918 2.325 2.245 2.325.486 0 1.082-.132 1.79-.397v.937zm-3.98-3.753h2.837c0-1.214-.446-1.82-1.34-1.82-.896 0-1.395.606-1.498 1.82zm7.725 4.114c-.533 0-1.18-.126-1.943-.379v-1.087c.762.385 1.426.577 1.99.577.336 0 .615-.092.836-.277a.863.863 0 0 0 .332-.69c0-.405-.31-.739-.93-1.003l-.682-.295c-1.007-.424-1.51-1.035-1.51-1.831 0-.569.198-1.016.595-1.343.397-.326.94-.49 1.632-.49.36 0 .804.05 1.333.151l.243.048v.985c-.652-.196-1.17-.294-1.552-.294-.75 0-1.126.276-1.126.829 0 .356.284.656.853.9l.563.24c.636.273 1.086.56 1.35.863.265.302.398.68.398 1.132a1.75 1.75 0 0 1-.67 1.411c-.446.368-1.017.553-1.712.553zm4.474-.15V63.5h1.167v6.126l2.725-3.165h1.256l-2.601 3.045 3.14 3.477h-1.493l-3.027-3.345v3.345h-1.167zm11.108 0v-1.226c-.62.917-1.372 1.376-2.257 1.376-.56 0-1.007-.18-1.339-.538-.331-.358-.497-.842-.497-1.45V66.46h1.167v4.3c0 .489.07.836.21 1.042.14.207.374.31.702.31.711 0 1.382-.475 2.014-1.424v-4.228h1.167v6.522h-1.167zm5.208.15c-.533 0-1.18-.126-1.943-.379v-1.087c.763.385 1.426.577 1.99.577.337 0 .615-.092.836-.277a.863.863 0 0 0 .332-.69c0-.405-.31-.739-.93-1.003l-.681-.295c-1.008-.424-1.511-1.035-1.511-1.831 0-.569.198-1.016.595-1.343.397-.326.941-.49 1.632-.49.36 0 .804.05 1.333.151l.243.048v.985c-.651-.196-1.169-.294-1.552-.294-.75 0-1.126.276-1.126.829 0 .356.285.656.854.9l.562.24c.636.273 1.086.56 1.351.863.265.302.397.68.397 1.132a1.75 1.75 0 0 1-.67 1.411c-.446.368-1.016.553-1.712.553zM207 28.5h5.385c3.657 6.04 7.722 11.881 11.227 18.094v-18.07H228V53.5h-4.915c-3.808-6.007-7.942-11.857-11.663-18.035V53.28H207V28.5zM257 30.364l-1.094 3.984c-.893-.31-1.727-.637-2.58-.888-2.555-.752-5.125-1.028-7.725-.21-5.753 1.81-7.106 8.111-4.618 12.396 1.567 2.699 3.946 4.082 6.903 4.494a9.848 9.848 0 0 0 4.551-.42v-6.866h4.533v10.264c-1.788.38-3.579.846-5.396 1.128-3.642.566-7.194.257-10.478-1.656-3.361-1.958-5.333-4.968-5.913-8.92-.415-2.826-.162-5.596 1.148-8.163 1.923-3.767 4.858-6.136 8.963-6.744 3.015-.448 6.02-.364 8.96.567.92.292 1.813.68 2.746 1.034M282.46 28.5h4.503c.012.193.031.361.031.53 0 5.24.023 10.482-.02 15.722a19.27 19.27 0 0 1-.398 3.627c-.517 2.556-2.205 4.053-4.305 5.113-1.162.586-2.4.855-3.676.934-2.233.137-4.466.185-6.579-.78-1.845-.841-3.42-2.038-4.248-4.097-.538-1.34-.733-2.768-.742-4.205-.034-5.512-.022-11.024-.026-16.536 0-.092.023-.185.039-.305h4.445v.745c0 4.852-.007 9.705.007 14.557.002.714.047 1.438.163 2.14.32 1.94 1.387 3.206 3.164 3.731 1.346.399 2.723.465 4.085.127 2.124-.528 3.4-2.246 3.528-4.703.039-.755.028-1.513.028-2.27.003-4.522.001-9.045.001-13.567V28.5zM134 51.83l1.953-4.343c.893.438 1.754.875 2.627 1.285 1.506.708 3.068 1.193 4.751 1.1.768-.042 1.515-.173 2.188-.607 1.261-.814 1.473-2.464.38-3.503-.5-.474-1.099-.85-1.689-1.209-1.889-1.15-3.828-2.22-5.679-3.43-.897-.587-1.766-1.317-2.428-2.162-1.548-1.979-1.518-4.212-.453-6.386 1.078-2.2 3.038-3.359 5.316-3.788 3.402-.642 6.725-.204 9.89 1.282.37.173.735.356 1.144.555l-1.842 4.233c-.507-.202-.96-.429-1.436-.564-1.415-.402-2.827-.83-4.263-1.128-1.015-.21-2.05-.059-3.01.393-1.512.711-1.748 2.426-.468 3.514.427.362.919.648 1.396.943 2.119 1.312 4.286 2.55 6.356 3.937 2.446 1.64 3.17 4.088 2.692 6.93-.466 2.768-2.25 4.377-4.796 5.074-3.107.85-6.208.732-9.21-.56-1.131-.487-2.242-1.024-3.419-1.565M120.896 43.253l-2.811-8.886-.132-.003-2.776 8.89h5.719zm-7 4.105l-2.003 6.14H107l8.888-24.998h4.222l8.89 25h-4.893l-1.93-6.142h-8.281zM185.182 43.233h5.708l-2.803-8.861-.133-.005-2.772 8.866m-3.29 10.267H177l8.89-25h4.22L199 53.498h-4.893l-1.93-6.143h-8.278l-2.007 6.145M164.193 53.5V32.52H157V28.5h19v3.983h-7.182V53.5z" mask="url(#d)"/>
    </g>
</svg>
